<svg xmlns="http://www.w3.org/2000/svg" version="1.1" xmlns:xlink="http://www.w3.org/1999/xlink" xmlns:svgjs="http://svgjs.dev/svgjs" width="100%" height="100%" viewBox="0 0 1000 600"><rect width="1000" height="600" x="0" y="0" fill="#1a1a1a"/><g><rect width="333.3333333333333" height="333.3333333333333" rx="13.333333333333334" ry="13.333333333333334" y="210.90046922097804" fill="#005a30" transform="matrix(0.6625034572777615,0,0,0.6625034572777616,0,49.860463114697666)" x="188.67816162109375"/><path d="M354.2324568021584 385.48213474736974L354.2324568021584 385.48213474736974Q329.4748984027993 378.380024100549 318.1799754464096 367.9978221911403Q306.91357502273814 357.61562028173165 306.91357502273814 342.3845878102365L306.91357502273814 342.3845878102365Q306.91357502273814 325.12845551575236 320.68995832560734 313.8335325593627Q334.4948641611947 302.56713213569117 356.542781952329 302.56713213569117L356.542781952329 302.56713213569117Q371.6026792275152 302.56713213569117 383.3824852401135 308.38572881019496Q395.1622912527118 314.2043254846987 401.608383647015 324.4153921977985Q408.0829985740363 334.65498144361635 408.0829985740363 346.7770578488325L408.0829985740363 346.7770578488325L388.74472139112675 346.7770578488325Q388.74472139112675 333.54260266760826 380.3020517065527 325.984131497297Q371.8879045546968 318.39713779426756 356.542781952329 318.39713779426756L356.542781952329 318.39713779426756Q342.31003812596936 318.39713779426756 334.32372896488573 324.67209499226186Q326.3659423365203 330.9470521902561 326.3659423365203 342.07083995033685L326.3659423365203 342.07083995033685Q326.3659423365203 350.99839269111953 333.92441350683157 357.15925975824115Q341.511407209861 363.3201268253628 359.7087830840443 368.4541827146308Q377.9061589582276 373.5597160711807 388.1742707367637 379.7205831383023Q398.47090504801787 385.88145020542396 403.43382574097694 394.12446216097095Q408.396746433936 402.33895158379977 408.396746433936 413.46273934388046L408.396746433936 413.46273934388046Q408.396746433936 431.2037546945733 394.56331806563054 441.8997044638817Q380.7013671646069 452.56713170047186 357.54107059746445 452.56713170047186L357.54107059746445 452.56713170047186Q342.50969585499644 452.56713170047186 329.4748984027993 446.80558009140447Q316.44010095060213 441.04402848233696 309.3665128364995 431.00409696554624Q302.29292472239695 420.9926879814736 302.29292472239695 408.24311585645796L302.29292472239695 408.24311585645796L321.6597244380246 408.24311585645796Q321.6597244380246 421.4775710376822 331.44295316035203 429.15013233886606Q341.19765934996127 436.82269364005 357.54107059746445 436.82269364005L357.54107059746445 436.82269364005Q372.8006256016778 436.82269364005 380.92954742635214 430.604781507492Q389.02994671830834 424.38686937493407 389.02994671830834 413.66239707290754Q389.02994671830834 402.937924770881 381.5285206134334 397.06228303094093Q373.99857197584026 391.215163823719 354.2324568021584 385.48213474736974Z " fill="#ffffff" transform="matrix(0.6625034572777615,0,0,0.6625034572777616,0,49.860463114697666)"/><path d="M644.9432721038532 370.369399601163L644.9432721038532 370.369399601163Q626.0682346923882 364.95478633451 617.4570425092775 357.0394480651859Q608.8675957609724 349.1241097958619 608.8675957609724 337.51204760954585L608.8675957609724 337.51204760954585Q608.8675957609724 324.35605955201544 619.3706407721909 315.7448673689047Q629.8954312182152 307.15542062059967 646.7046523231259 307.15542062059967L646.7046523231259 307.15542062059967Q658.186241900607 307.15542062059967 667.167106475417 311.5914893209901Q676.1479710502269 316.0275580213805 681.0624393163457 323.8124236818696Q685.9986530172703 331.6190347771644 685.9986530172703 340.8608445696445L685.9986530172703 340.8608445696445L671.255248218914 340.8608445696445Q671.255248218914 330.77096281973684 664.8185995163867 325.0084225961905Q658.4036962486653 319.2241369378383 646.7046523231259 319.2241369378383L646.7046523231259 319.2241369378383Q635.8536803550141 319.2241369378383 629.7649586093802 324.0081325951221Q623.6979822985521 328.79212825240586 623.6979822985521 337.27284782668164L623.6979822985521 337.27284782668164Q623.6979822985521 344.0791689209081 629.4605225220985 348.7761828389685Q635.2448081804507 353.4731967570289 649.1183955865736 357.3873750220793Q662.9919829926966 361.2798078523238 670.8203395227972 365.9768217703843Q678.6704414877038 370.6738356884447 682.4541471439193 376.9582663473311Q686.2378528001345 383.2209515714117 686.2378528001345 391.70167114568744L686.2378528001345 391.70167114568744Q686.2378528001345 405.227331594917 675.6913169193044 413.38186964710525Q665.1230356036684 421.5146622644877 647.4657425413302 421.5146622644877L647.4657425413302 421.5146622644877Q636.005898398655 421.5146622644877 626.0682346923882 417.12208443370895Q616.1305709861215 412.7295066029302 610.7377031542743 405.07511355127616Q605.3448353224271 397.44246593442796 605.3448353224271 387.72225657621954L605.3448353224271 387.72225657621954L620.1099855555893 387.72225657621954Q620.1099855555893 397.8121383261272 627.5686696939908 403.6616602888969Q635.0056083975865 409.5111822516666 647.4657425413302 409.5111822516666L647.4657425413302 409.5111822516666Q659.099550162452 409.5111822516666 665.2969990821151 404.77067746399445Q671.4727025669724 400.03017267632237 671.4727025669724 391.8538891893283Q671.4727025669724 383.67760570233423 665.7536532130378 379.19804613233214Q660.0128584242971 374.7402319971359 644.9432721038532 370.369399601163ZM707.8745604319406 317.24530237050726L722.0090930557337 317.24530237050726L722.0090930557337 337.27284782668164L737.4483517678768 337.27284782668164L737.4483517678768 348.2108015340168L722.0090930557337 348.2108015340168L722.0090930557337 399.50828224098234Q722.0090930557337 404.4662413767128 724.074909362288 406.96696637938385Q726.1407256688424 409.4459459472491 731.0986848045729 409.4459459472491L731.0986848045729 409.4459459472491Q733.5559189376322 409.4459459472491 737.8397695943818 408.532637685404L737.8397695943818 408.532637685404L737.8397695943818 419.9924818280792Q732.251192849282 421.5146622644877 726.9887976262698 421.5146622644877L726.9887976262698 421.5146622644877Q717.5077880509257 421.5146622644877 712.6803015240303 415.79561291055296Q707.8745604319406 410.05481812181245 707.8745604319406 399.50828224098234L707.8745604319406 399.50828224098234L707.8745604319406 348.2108015340168L692.8049741114969 348.2108015340168L692.8049741114969 337.27284782668164L707.8745604319406 337.27284782668164L707.8745604319406 317.24530237050726ZM793.9429913934368 336.81619369575907L793.9429913934368 349.9721817532895Q790.746412476979 349.42854588314356 786.9844522555695 349.42854588314356L786.9844522555695 349.42854588314356Q773.0891194146409 349.42854588314356 768.1094148441045 361.2798078523238L768.1094148441045 361.2798078523238L768.1094148441045 419.9924818280792L753.9748822203117 419.9924818280792L753.9748822203117 337.27284782668164L767.7179970175996 337.27284782668164L767.9571968004636 346.84083914124915Q774.915735938331 335.7506673902731 787.6803061693563 335.7506673902731L787.6803061693563 335.7506673902731Q791.8119387824652 335.7506673902731 793.9429913934368 336.81619369575907L793.9429913934368 336.81619369575907ZM801.6626207495085 378.8718646102446L801.6626207495085 377.87157460917615Q801.6626207495085 365.71587655271424 806.4466164067921 355.99566719450587Q811.230612064076 346.2972032711033 819.7548225079634 341.0130626132853Q828.2790329518509 335.7506673902731 839.216986659186 335.7506673902731L839.216986659186 335.7506673902731Q856.1131895033202 335.7506673902731 866.5292527753152 347.4497113158126Q876.9670614821162 359.148755241352 876.9670614821162 378.5674285229629L876.9670614821162 378.5674285229629L876.9670614821162 379.54597308922547Q876.9670614821162 391.63643484126993 872.357029303279 401.22617159064333Q867.7252516896363 410.81590834001673 859.1140595065253 416.1652853022522Q850.5246127582204 421.5146622644877 839.3692047028269 421.5146622644877L839.3692047028269 421.5146622644877Q822.5382381631105 421.5146622644877 812.1004294563095 409.81561833894824Q801.6626207495085 398.13831984821473 801.6626207495085 378.8718646102446L801.6626207495085 378.8718646102446ZM815.8841351125247 379.54597308922547L815.8841351125247 379.54597308922547Q815.8841351125247 393.3108333213193 822.2772929454404 401.6393348519542Q828.6487053435501 409.96783638258916 839.3692047028269 409.96783638258916L839.3692047028269 409.96783638258916Q850.1331949317155 409.96783638258916 856.4828618950194 401.53060767792505Q862.8325288583233 393.07163353845505 862.8325288583233 377.87157460917615L862.8325288583233 377.87157460917615Q862.8325288583233 364.2589324207233 856.3741347209902 355.8217037160592Q849.915740583657 347.36272957658923 839.216986659186 347.36272957658923L839.216986659186 347.36272957658923Q828.7356870827734 347.36272957658923 822.320783815052 355.69123110722416Q815.8841351125247 364.0414780726649 815.8841351125247 379.54597308922547ZM894.6243545444545 337.27284782668164L908.019542384849 337.27284782668164L908.3892147765482 346.44942131474414Q917.5005519601932 335.7506673902731 932.9398106723363 335.7506673902731L932.9398106723363 335.7506673902731Q950.2926676473928 335.7506673902731 956.5553528714736 349.03712805663855L956.5553528714736 349.03712805663855Q960.6869854845822 343.07887891983967 967.2975976655562 339.4256458724593Q973.9082098465301 335.7506673902731 982.9325652909517 335.7506673902731L982.9325652909517 335.7506673902731Q1010.1361042330518 335.7506673902731 1010.6145037987801 364.56336850800494L1010.6145037987801 364.56336850800494L1010.6145037987801 419.9924818280792L996.4582257401812 419.9924818280792L996.4582257401812 365.4114404654325Q996.4582257401812 356.53930306465173 992.4135748662959 352.146725233873Q988.3689239924106 347.75414740309424 978.8009326778431 347.75414740309424L978.8009326778431 347.75414740309424Q970.9290852781307 347.75414740309424 965.7319263595359 352.4511613211547Q960.5347674409413 357.1481752392151 959.6866954835139 365.10700437815086L959.6866954835139 365.10700437815086L959.6866954835139 419.9924818280792L945.4651811204974 419.9924818280792L945.4651811204974 365.78111285713175Q945.4651811204974 347.75414740309424 927.8078880581593 347.75414740309424L927.8078880581593 347.75414740309424Q913.8908097824246 347.75414740309424 908.7806326030534 359.6054093722745L908.7806326030534 359.6054093722745L908.7806326030534 419.9924818280792L894.6243545444545 419.9924818280792L894.6243545444545 337.27284782668164ZM1101.9670754180943 378.3282287400987L1101.9670754180943 379.54597308922547Q1101.9670754180943 398.5079922399139 1093.2471560609542 410.0113272522008Q1084.5272367038144 421.5146622644877 1069.8490682098754 421.5146622644877L1069.8490682098754 421.5146622644877Q1054.1706097148683 421.5146622644877 1045.624653836175 410.4462359483175L1045.624653836175 410.4462359483175L1044.9287999223884 419.9924818280792L1031.9250299084988 419.9924818280792L1031.9250299084988 302.56713387656845L1046.0813079670977 302.56713387656845L1046.0813079670977 346.3624395755208Q1054.6490092805968 335.7506673902731 1069.6968501662348 335.7506673902731Q1084.7664364866787 335.7506673902731 1093.3558832349836 347.14527522853086Q1101.9670754180943 358.5181376319827 1101.9670754180943 378.3282287400987L1101.9670754180943 378.3282287400987ZM1087.8107973594956 377.93681091359366L1087.8107973594956 377.93681091359366Q1087.8107973594956 363.49784220251905 1082.2439660492016 355.62599480280664Q1076.655389304102 347.75414740309424 1066.1740897276893 347.75414740309424L1066.1740897276893 347.75414740309424Q1052.1917751475373 347.75414740309424 1046.0813079670977 360.73617198217795L1046.0813079670977 360.73617198217795L1046.0813079670977 396.5291576725829Q1052.5831929740423 409.5111822516666 1066.3263077713302 409.5111822516666L1066.3263077713302 409.5111822516666Q1076.5031712604612 409.5111822516666 1082.1569843099783 401.6393348519542Q1087.8107973594956 393.7674874522418 1087.8107973594956 377.93681091359366ZM1154.0908826476816 421.5146622644877L1154.0908826476816 421.5146622644877Q1137.281661542771 421.5146622644877 1126.7351256619406 410.46798138312334Q1116.1885897811105 399.421300501759 1116.1885897811105 380.93768091679897L1116.1885897811105 380.93768091679897L1116.1885897811105 378.3282287400987Q1116.1885897811105 366.02031263999595 1120.885603699171 356.3435941513992Q1125.5826176172316 346.68862109760835 1134.0415917567013 341.2087715265378Q1142.4788204613656 335.7506673902731 1152.3512478632147 335.7506673902731L1152.3512478632147 335.7506673902731Q1168.4646150543388 335.7506673902731 1177.4237341943428 346.3624395755208Q1186.3611078995411 356.99595719557425 1186.3611078995411 376.80604830369026L1186.3611078995411 376.80604830369026L1186.3611078995411 382.6773157012658L1130.3231224049036 382.6773157012658Q1130.6275584921852 394.91999549695106 1137.4773704560234 402.4439159397701Q1144.3054369850556 409.96783638258916 1154.8737183006917 409.96783638258916L1154.8737183006917 409.96783638258916Q1162.354147873899 409.96783638258916 1167.5513067924937 406.9234755097722Q1172.7484657110883 403.8573692021494 1176.6626439761387 398.8124283271956L1176.6626439761387 398.8124283271956L1185.2955815940552 405.55351311700457Q1174.901263756866 421.5146622644877 1154.0908826476816 421.5146622644877ZM1152.3512478632147 347.36272957658923L1152.3512478632147 347.36272957658923Q1143.7835465497155 347.36272957658923 1137.9775154565575 353.60366936586394Q1132.1497389285937 359.82286372033286 1130.7797765358262 371.06525351494975L1130.7797765358262 371.06525351494975L1172.2265752757482 371.06525351494975L1172.2265752757482 369.9997272094638Q1171.595957666379 359.2139915457695 1166.3987987477844 353.2992332785823Q1161.2016398291898 347.36272957658923 1152.3512478632147 347.36272957658923ZM1242.7035294814605 336.81619369575907L1242.7035294814605 349.9721817532895Q1239.4852051301968 349.42854588314356 1235.7449903435931 349.42854588314356L1235.7449903435931 349.42854588314356Q1221.8279120678587 349.42854588314356 1216.8699529321282 361.2798078523238L1216.8699529321282 361.2798078523238L1216.8699529321282 419.9924818280792L1202.7136748735293 419.9924818280792L1202.7136748735293 337.27284782668164L1216.4785351056232 337.27284782668164L1216.7177348884875 346.84083914124915Q1223.6762740263548 335.7506673902731 1236.44084425738 335.7506673902731L1236.44084425738 335.7506673902731Q1240.5724768704886 335.7506673902731 1242.7035294814605 336.81619369575907L1242.7035294814605 336.81619369575907ZM1250.8798129684546 377.93681091359366L1250.8798129684546 377.93681091359366Q1250.8798129684546 358.60511937120606 1259.8389321084587 347.1670206633367Q1268.776305813657 335.7506673902731 1283.5197106120136 335.7506673902731L1283.5197106120136 335.7506673902731Q1298.6545332368748 335.7506673902731 1307.1569982459564 346.44942131474414L1307.1569982459564 346.44942131474414L1307.8311067249374 337.27284782668164L1320.7478949996034 337.27284782668164L1320.7478949996034 418.0136472607482Q1320.7478949996034 434.0617781474547 1311.2451399894535 443.3035879399347Q1301.7206395444978 452.56714316722054 1285.6725086577912 452.56714316722054L1285.6725086577912 452.56714316722054Q1276.7133895177872 452.56714316722054 1268.1674336390938 448.7399466413935Q1259.5997323255947 444.91275011556655 1255.0984273207869 438.2586470649809L1255.0984273207869 438.2586470649809L1262.4266388503534 429.7779274907051Q1271.5162305991926 441.02031728532194 1284.6722186567226 441.02031728532194L1284.6722186567226 441.02031728532194Q1295.0013001894945 441.02031728532194 1300.763840413041 435.2142861921639Q1306.5481260713932 429.38650966420005 1306.5481260713932 418.83997378336994L1306.5481260713932 418.83997378336994L1306.5481260713932 411.72921660186176Q1298.0456610623114 421.5146622644877 1283.3674925683727 421.5146622644877L1283.3674925683727 421.5146622644877Q1268.8415421180748 421.5146622644877 1259.8606775432647 409.81561833894824Q1250.8798129684546 398.13831984821473 1250.8798129684546 377.93681091359366ZM1265.1013273314709 379.54597308922547L1265.1013273314709 379.54597308922547Q1265.1013273314709 393.55003310418346 1270.8421221202116 401.53060767792505Q1276.5611714741462 409.5111822516666 1286.890253006918 409.5111822516666L1286.890253006918 409.5111822516666Q1300.2636954125066 409.5111822516666 1306.5481260713932 397.35548419520467L1306.5481260713932 397.35548419520467L1306.5481260713932 359.6054093722745Q1300.0462410644482 347.75414740309424 1287.0424710505588 347.75414740309424L1287.0424710505588 347.75414740309424Q1276.7133895177872 347.75414740309424 1270.907358424629 355.7782128464475Q1265.1013273314709 363.8022782898007 1265.1013273314709 379.54597308922547Z " fill="#ffffff" transform="matrix(0.6625034572777615,0,0,0.6625034572777616,0,49.860463114697666)"/></g></svg>